<svg width="983" height="544" viewBox="0 0 983 544" fill="none" xmlns="http://www.w3.org/2000/svg">
<g clip-path="url(#clip0_336_435)">
<path d="M125.052 349.213H863.132C879.897 294.446 903.529 174.81 851.484 34.9935C769.164 29.492 628.402 188.316 617.719 278.099C533.064 200.333 382.786 260.287 374.168 270.613C366.987 219.882 288.638 76.8865 144.936 37.609C63.2441 121.981 117.04 327.591 117.04 327.591L125.052 349.213ZM825.742 89.1297C746.788 176.388 660.562 304.186 660.562 304.186C660.562 304.186 731.437 116.344 825.742 89.1297ZM326.253 287.005C302.306 207.909 160.848 73.0985 160.848 73.0985C160.848 73.0985 324.704 167.933 326.253 287.005Z" fill="#F9F9F9"/>
<path d="M979.14 3.9007H3.88281V405.356H979.14V3.9007Z" stroke="#F9F9F9" stroke-width="3.45" stroke-miterlimit="10"/>
<path d="M192.111 469.346L183.134 477.846C180.605 474.883 177.479 472.493 173.962 470.833C170.445 469.174 166.618 468.282 162.734 468.218C159.749 468.188 156.787 468.757 154.024 469.89C151.26 471.024 148.749 472.7 146.638 474.821C144.528 476.942 142.859 479.464 141.731 482.241C140.602 485.017 140.036 487.992 140.066 490.991C139.989 495.144 140.987 499.247 142.961 502.896C144.887 506.334 147.733 509.161 151.175 511.058C154.781 513.057 158.84 514.083 162.958 514.035C166.44 514.073 169.891 513.366 173.08 511.96C176.866 510.062 180.298 507.522 183.224 504.452L191.842 513.471C187.826 517.646 183.088 521.053 177.86 523.527C173.094 525.466 167.987 526.417 162.846 526.323C158.153 526.498 153.475 525.711 149.095 524.009C144.715 522.307 140.727 519.726 137.373 516.425C134.064 513.087 131.475 509.1 129.768 504.712C128.062 500.325 127.274 495.631 127.453 490.924C127.333 484.682 128.883 478.522 131.942 473.089C135.041 467.81 139.509 463.477 144.869 460.552C150.402 457.418 156.651 455.786 163.003 455.817C168.549 455.829 174.027 457.043 179.062 459.378C184.098 461.713 188.572 465.113 192.179 469.346H192.111Z" fill="#F9F9F9"/>
<path d="M238.299 475.005H250.687V524.609H238.299V519.356C236.194 521.449 233.73 523.144 231.027 524.361C228.512 525.387 225.819 525.901 223.105 525.872C219.98 525.882 216.889 525.224 214.037 523.941C211.186 522.658 208.638 520.78 206.565 518.431C201.902 513.416 199.394 506.757 199.585 499.897C199.315 492.982 201.729 486.232 206.318 481.07C208.365 478.733 210.891 476.868 213.723 475.604C216.554 474.339 219.625 473.704 222.723 473.742C225.59 473.727 228.43 474.294 231.072 475.411C233.775 476.623 236.22 478.345 238.276 480.484L238.299 475.005ZM225.282 485.219C223.49 485.172 221.71 485.513 220.061 486.217C218.411 486.921 216.931 487.972 215.721 489.3C213.244 492.24 211.885 495.967 211.885 499.818C211.885 503.67 213.244 507.397 215.721 510.337C216.917 511.675 218.387 512.738 220.029 513.454C221.671 514.17 223.447 514.522 225.237 514.486C227.045 514.535 228.844 514.197 230.512 513.493C232.18 512.789 233.679 511.736 234.91 510.404C237.539 507.488 238.918 503.648 238.748 499.717C238.829 497.801 238.531 495.889 237.873 494.089C237.214 492.29 236.207 490.639 234.91 489.232C233.671 487.928 232.175 486.897 230.517 486.206C228.859 485.515 227.076 485.179 225.282 485.219Z" fill="#F9F9F9"/>
<path d="M263.188 475.005H275.576V480.101C277.852 478.065 280.426 476.392 283.207 475.14C285.426 474.215 287.806 473.739 290.209 473.742C292.528 473.701 294.831 474.135 296.976 475.019C299.122 475.903 301.065 477.218 302.687 478.883C304.216 480.65 305.382 482.703 306.118 484.924C306.854 487.145 307.145 489.491 306.974 491.825V524.609H294.743V502.874C294.904 498.932 294.633 494.985 293.935 491.104C293.559 489.326 292.584 487.733 291.174 486.594C289.77 485.545 288.053 485.005 286.304 485.061C283.91 485.018 281.595 485.925 279.863 487.586C277.945 489.483 276.646 491.921 276.138 494.576C275.638 497.903 275.45 501.27 275.576 504.632V524.542H263.188V475.005Z" fill="#F9F9F9"/>
<path d="M355.384 455.862H367.772V524.609H355.384V519.356C353.278 521.449 350.815 523.144 348.112 524.361C345.605 525.387 342.919 525.901 340.212 525.872C337.087 525.885 333.995 525.228 331.143 523.945C328.29 522.662 325.743 520.782 323.672 518.431C319.009 513.416 316.502 506.757 316.692 499.897C316.411 492.98 318.826 486.226 323.425 481.07C325.471 478.732 327.997 476.866 330.829 475.602C333.661 474.337 336.732 473.702 339.831 473.742C342.69 473.727 345.522 474.295 348.157 475.411C350.866 476.612 353.313 478.336 355.361 480.484L355.384 455.862ZM342.367 485.174C340.579 485.128 338.801 485.468 337.156 486.172C335.51 486.876 334.034 487.928 332.828 489.255C330.246 492.107 328.883 495.865 329.036 499.717C328.891 503.614 330.278 507.412 332.896 510.292C334.094 511.627 335.563 512.689 337.205 513.404C338.847 514.12 340.622 514.473 342.412 514.44C344.22 514.49 346.018 514.152 347.686 513.448C349.354 512.744 350.854 511.691 352.084 510.359C354.714 507.443 356.093 503.603 355.922 499.672C356.003 497.756 355.706 495.844 355.047 494.044C354.388 492.245 353.381 490.594 352.084 489.187C350.833 487.877 349.321 486.846 347.647 486.162C345.972 485.479 344.173 485.157 342.367 485.219V485.174Z" fill="#F9F9F9"/>
<path d="M385.12 454.6C386.164 454.586 387.199 454.789 388.161 455.196C389.123 455.604 389.99 456.207 390.709 456.967C391.446 457.722 392.024 458.618 392.41 459.602C392.795 460.586 392.98 461.637 392.953 462.694C392.983 463.745 392.799 464.791 392.413 465.767C392.028 466.744 391.448 467.632 390.709 468.376C389.994 469.116 389.134 469.698 388.184 470.086C387.234 470.474 386.213 470.66 385.188 470.631C384.135 470.646 383.091 470.441 382.122 470.03C381.152 469.618 380.278 469.009 379.555 468.241C378.814 467.47 378.234 466.559 377.849 465.56C377.463 464.561 377.28 463.495 377.31 462.424C377.316 460.327 378.148 458.317 379.624 456.834C381.1 455.351 383.1 454.516 385.188 454.51L385.12 454.6ZM378.926 475.005H391.315V524.609H378.926V475.005Z" fill="#F9F9F9"/>
<path d="M450.9 485.039L440.577 490.743C439.062 488.948 437.157 487.524 435.01 486.582C432.863 485.641 430.529 485.205 428.188 485.309C426.136 485.222 424.087 485.546 422.16 486.262C420.234 486.978 418.468 488.072 416.967 489.48C415.545 490.856 414.427 492.516 413.685 494.353C412.943 496.19 412.593 498.164 412.658 500.145C412.591 502.063 412.926 503.973 413.641 505.752C414.356 507.531 415.436 509.139 416.81 510.472C418.259 511.833 419.965 512.89 421.826 513.579C423.688 514.268 425.668 514.576 427.65 514.486C430.102 514.618 432.55 514.17 434.799 513.18C437.048 512.189 439.035 510.682 440.599 508.781L450.362 515.545C447.734 518.968 444.319 521.699 440.411 523.505C436.502 525.312 432.216 526.139 427.919 525.917C419.226 525.917 412.426 523.339 407.518 518.183C404.698 515.324 402.584 511.841 401.343 508.013C400.103 504.185 399.772 500.119 400.376 496.139C400.98 492.16 402.503 488.378 404.823 485.096C407.143 481.813 410.195 479.122 413.735 477.237C418.162 474.902 423.099 473.716 428.098 473.787C432.665 473.713 437.185 474.717 441.295 476.719C445.15 478.625 448.456 481.489 450.9 485.039Z" fill="#F9F9F9"/>
<path d="M511.497 503.415H471.705C472.154 506.698 473.802 509.695 476.329 511.825C479.036 513.974 482.419 515.078 485.867 514.936C488.08 514.966 490.276 514.55 492.327 513.714C494.377 512.877 496.24 511.637 497.806 510.066L508.242 514.982C505.878 518.486 502.655 521.321 498.884 523.211C494.833 525.078 490.411 525.989 485.957 525.872C482.471 526.006 478.995 525.423 475.742 524.159C472.488 522.895 469.526 520.977 467.037 518.521C464.635 516.109 462.749 513.228 461.495 510.056C460.24 506.885 459.644 503.489 459.743 500.078C459.639 496.607 460.228 493.15 461.477 489.912C462.726 486.675 464.609 483.722 467.015 481.228C469.377 478.777 472.221 476.845 475.366 475.557C478.511 474.268 481.888 473.65 485.283 473.742C488.787 473.609 492.281 474.205 495.544 475.493C498.808 476.782 501.771 478.734 504.248 481.228C506.725 483.871 508.647 486.988 509.9 490.393C511.153 493.798 511.711 497.421 511.542 501.047L511.497 503.415ZM499.108 493.607C498.322 490.862 496.618 488.473 494.283 486.842C491.833 485.099 488.891 484.191 485.889 484.25C482.624 484.189 479.429 485.211 476.8 487.158C474.803 488.899 473.262 491.105 472.311 493.584L499.108 493.607Z" fill="#F9F9F9"/>
<path d="M548.932 457.553H563.968C573.694 457.553 580.905 458.763 585.603 461.184C590.571 463.848 594.628 467.948 597.251 472.953C599.872 478.059 601.405 483.657 601.753 489.391C602.1 495.125 601.255 500.868 599.271 506.256C597.733 510.327 595.319 514.007 592.202 517.033C589.44 519.744 586.091 521.774 582.416 522.963C576.447 524.311 570.328 524.864 564.215 524.609H548.932V457.553ZM561.545 469.864V512.163H567.447C571.754 512.423 576.065 511.738 580.082 510.156C582.872 508.63 585.117 506.265 586.501 503.392C588.266 499.761 589.121 495.752 588.992 491.713C588.992 484.603 587.01 479.086 583.045 475.163C579.484 471.615 573.754 469.849 565.854 469.864H561.545Z" fill="#F9F9F9"/>
<path d="M662.156 503.415H622.253C622.664 506.679 624.263 509.674 626.741 511.825C629.449 513.973 632.832 515.076 636.279 514.936C638.493 514.971 640.691 514.558 642.742 513.721C644.794 512.884 646.656 511.641 648.219 510.066L658.655 514.982C656.292 518.479 653.078 521.312 649.319 523.211C645.262 525.082 640.832 525.992 636.369 525.872C632.884 526.006 629.408 525.423 626.154 524.159C622.901 522.895 619.939 520.977 617.45 518.521C615.048 516.109 613.161 513.228 611.907 510.056C610.653 506.885 610.057 503.489 610.156 500.078C610.051 496.607 610.641 493.15 611.89 489.912C613.139 486.675 615.022 483.722 617.427 481.228C619.792 478.779 622.636 476.849 625.78 475.561C628.925 474.272 632.301 473.653 635.696 473.742C639.2 473.609 642.694 474.205 645.957 475.493C649.221 476.782 652.184 478.734 654.66 481.228C657.137 483.871 659.059 486.988 660.313 490.393C661.566 493.798 662.124 497.421 661.954 501.047L662.156 503.415ZM649.768 493.607C648.964 490.864 647.254 488.478 644.92 486.842C642.471 485.096 639.529 484.187 636.526 484.25C633.299 484.217 630.149 485.238 627.549 487.158C625.559 488.905 624.019 491.11 623.061 493.584L649.768 493.607Z" fill="#F9F9F9"/>
<path d="M702.284 481.905L694.609 489.593C691.489 486.504 688.661 484.948 686.125 484.948C684.967 484.881 683.819 485.189 682.848 485.828C682.484 486.077 682.186 486.414 681.982 486.808C681.779 487.201 681.675 487.639 681.681 488.083C681.687 488.771 681.952 489.431 682.422 489.931C683.529 490.876 684.779 491.637 686.125 492.186L690.614 494.441C694.405 496.077 697.774 498.56 700.466 501.701C702.515 504.703 703.417 508.348 703.004 511.964C702.592 515.581 700.894 518.926 698.222 521.385C694.64 524.499 690.004 526.113 685.272 525.894C681.927 525.994 678.607 525.275 675.6 523.798C672.594 522.321 669.99 520.131 668.014 517.417L675.644 509.074C677.065 510.763 678.795 512.163 680.739 513.2C682.319 514.147 684.107 514.689 685.946 514.779C687.36 514.853 688.757 514.43 689.896 513.584C690.339 513.278 690.704 512.872 690.962 512.398C691.219 511.924 691.361 511.395 691.377 510.855C691.377 508.946 689.581 507.075 685.99 505.241L681.816 503.167C673.826 499.108 669.832 494.043 669.832 487.97C669.815 486.071 670.208 484.191 670.983 482.46C671.758 480.728 672.896 479.185 674.32 477.936C677.486 475.089 681.632 473.592 685.878 473.765C689.039 473.751 692.158 474.486 694.981 475.913C697.805 477.339 700.253 479.415 702.127 481.972L702.284 481.905Z" fill="#F9F9F9"/>
<path d="M717.769 454.6C718.813 454.586 719.848 454.789 720.81 455.196C721.772 455.604 722.639 456.207 723.358 456.967C724.846 458.489 725.68 460.538 725.68 462.672C725.68 464.806 724.846 466.854 723.358 468.376C722.641 469.112 721.78 469.692 720.831 470.08C719.881 470.468 718.862 470.656 717.837 470.631C716.784 470.648 715.739 470.445 714.769 470.033C713.799 469.622 712.925 469.011 712.204 468.241C711.463 467.47 710.883 466.559 710.498 465.56C710.112 464.561 709.929 463.495 709.959 462.424C709.965 460.327 710.797 458.317 712.273 456.834C713.749 455.351 715.749 454.516 717.837 454.51L717.769 454.6ZM711.53 475.005H723.919V524.609H711.53V475.005Z" fill="#F9F9F9"/>
<path d="M771.677 475.005H784.021V517.484C784.021 525.872 782.36 532.05 778.994 535.996C774.505 541.347 767.712 544.023 758.616 544.023C754.471 544.13 750.34 543.512 746.407 542.196C743.26 541.069 740.412 539.233 738.08 536.83C735.753 534.401 734.024 531.46 733.031 528.239H746.698C747.964 529.677 749.569 530.77 751.367 531.419C753.53 532.174 755.81 532.532 758.099 532.478C760.859 532.589 763.607 532.065 766.134 530.945C767.955 530.104 769.457 528.697 770.421 526.932C771.428 524.226 771.849 521.336 771.655 518.454C769.755 520.471 767.464 522.075 764.922 523.166C762.329 524.159 759.572 524.649 756.798 524.609C753.652 524.656 750.533 524.037 747.641 522.794C744.749 521.551 742.149 519.711 740.01 517.394C735.523 512.226 733.086 505.58 733.165 498.722C733.243 491.865 735.832 485.276 740.437 480.214C742.483 478.122 744.93 476.47 747.631 475.358C750.331 474.245 753.229 473.696 756.147 473.742C758.908 473.727 761.645 474.255 764.204 475.298C767.023 476.554 769.592 478.311 771.79 480.484L771.677 475.005ZM758.84 485.354C757.047 485.299 755.261 485.622 753.599 486.301C751.937 486.981 750.435 488.002 749.19 489.3C746.707 492.047 745.332 495.624 745.332 499.334C745.332 503.044 746.707 506.621 749.19 509.367C750.462 510.674 751.991 511.702 753.679 512.385C755.367 513.068 757.178 513.392 758.997 513.336C760.759 513.391 762.514 513.077 764.148 512.413C765.783 511.749 767.262 510.75 768.49 509.48C769.756 508.12 770.739 506.52 771.382 504.774C772.026 503.028 772.317 501.171 772.238 499.311C772.314 497.463 772.02 495.619 771.372 493.887C770.724 492.156 769.737 490.573 768.468 489.232C767.216 487.954 765.714 486.95 764.057 486.283C762.401 485.615 760.624 485.299 758.84 485.354Z" fill="#F9F9F9"/>
<path d="M796.544 475.005H808.932V480.101C811.205 478.06 813.779 476.386 816.563 475.14C818.782 474.215 821.162 473.739 823.565 473.742C825.881 473.699 828.181 474.132 830.323 475.016C832.466 475.901 834.405 477.217 836.021 478.883C837.557 480.646 838.729 482.698 839.469 484.92C840.209 487.142 840.501 489.489 840.33 491.825V524.609H828.076V502.874C828.242 498.933 827.979 494.987 827.291 491.104C826.898 489.333 825.926 487.745 824.53 486.594C823.124 485.548 821.409 485.008 819.66 485.061C817.266 485.018 814.951 485.925 813.219 487.586C811.302 489.487 809.996 491.922 809.471 494.576C808.996 497.906 808.815 501.271 808.932 504.632V524.542H796.544V475.005Z" fill="#F9F9F9"/>
</g>
<defs>
<clipPath id="clip0_336_435">
<rect width="983" height="544" fill="white"/>
</clipPath>
</defs>
</svg>
